<svg xmlns="http://www.w3.org/2000/svg" viewBox="0 0 512 512" enable-background="new 0 0 512 512"><path d="M238.933 465.084h-17.067c-5.12 0-8.533 3.413-8.533 8.533 0 5.12 3.413 8.533 8.533 8.533h17.067c5.12 0 8.533-3.413 8.533-8.533.001-5.12-3.413-8.533-8.533-8.533zM204.8 456.551h34.133c5.12 0 8.533-3.413 8.533-8.533s-3.413-8.533-8.533-8.533h-34.133c-5.12 0-8.533 3.413-8.533 8.533s3.413 8.533 8.533 8.533zM503.467 465.084h-76.8v-451.439c.051-.561.041-1.132-.043-1.711-.172-1.982-.926-3.885-2.261-5.206l-.069-.071-.071-.069c-1.321-1.336-3.224-2.089-5.206-2.261-.578-.084-1.149-.094-1.711-.043h-322.612c-.561-.051-1.132-.041-1.711.043-1.982.172-3.885.926-5.206 2.262l-.07.068-.07.072c-1.336 1.321-2.089 3.224-2.261 5.206-.084.578-.094 1.149-.043 1.711v297.839c-14.507 0-25.6 11.093-25.6 25.6v128h-51.2c-5.12 0-8.533 3.413-8.533 8.533v25.6c0 5.12 3.413 8.533 8.533 8.533h494.933c5.12 0 8.533-3.413 8.533-8.533v-25.6c.001-5.121-3.412-8.534-8.532-8.534zm-105.814-443.733l-17.067 17.067h-249.173l-17.067-17.067h283.307zm-295.253 11.946l17.067 17.067v261.12h-17.067v-278.187zm-85.333 448.854h42.667c0 3.016.486 5.881 1.376 8.533h-44.043v-8.533zm59.733 0v-145.06699999999998c0-5.12 3.413-8.533 8.533-8.533h51.2v51.2c0 3.413 1.707 5.973 5.12 6.827 2.56 1.707 5.973 1.707 8.533 0l20.48-13.653 21.334 14.506c2.56 1.707 5.973 1.707 8.533 0s4.267-4.267 4.267-7.68v-51.2h42.667c5.12 0 8.533 3.413 8.533 8.533v145.067c0 5.12-3.413 8.533-8.533 8.533h-162.134c-5.12 0-8.533-3.413-8.533-8.533zm110.08-118.614l-11.947-8.533c-2.56-1.707-6.827-1.707-9.387 0l-11.947 8.533v-43.52h33.28v43.52zm85.333 118.614v-145.067c0-14.507-11.093-25.6-25.6-25.6h-41.813c0-5.12-3.413-8.533-8.533-8.533h-51.2c-5.12 0-8.533 3.413-8.533 8.533v-256h238.933v435.2h-104.107c.853-2.56 1.707-5.12.853-8.533zm120.32-431.787l17.067-17.067v457.387h-17.067v-440.32zm102.4 440.32h-68.267v-8.533h68.267v8.533zM346.453 234.684h-17.92c-11.093 0-20.48 9.387-20.48 20.48v5.12h-13.653c-11.947 0-21.333 9.387-21.333 21.333 0 11.947 9.387 21.333 21.333 21.333h13.653v5.12c0 11.093 9.387 20.48 20.48 20.48h17.92c11.093 0 20.48-9.387 20.48-21.333v-52.053c0-11.093-9.386-20.48-20.48-20.48zm-56.32 46.933c0-2.56 1.707-4.267 4.267-4.267h29.867v8.533h-29.867c-2.56.001-4.267-1.706-4.267-4.266zm58.88 26.454c0 1.707-1.707 3.413-3.413 3.413h-17.92c-1.707 0-3.413-1.707-3.413-3.413v-5.12h8.533c5.12 0 8.533-3.413 8.533-8.533v-25.6c0-5.12-3.413-8.533-8.533-8.533h-8.533v-4.267c0-1.707 1.707-3.413 3.413-3.413h17.92c1.707 0 3.413 1.707 3.413 3.413v52.053z"/></svg>